<svg xmlns="http://www.w3.org/2000/svg" xmlns:xlink="http://www.w3.org/1999/xlink" contentStyleType="text/css" data-diagram-type="CLASS" height="1065px" preserveAspectRatio="none" style="width:801px;height:1065px;background:#FFFFFF;" version="1.1" viewBox="0 0 801 1065" width="801px" zoomAndPan="magnify"><title>HelloBot Architecture with Tracking Layers</title><defs/><g><g class="title" data-source-line="1"><text fill="#000000" font-family="sans-serif" font-size="14" font-weight="bold" lengthAdjust="spacing" textLength="309.7637" x="238.6182" y="23.5352">HelloBot Architecture with Tracking Layers</text></g><!--cluster Salesforce Platform--><g class="cluster" data-entity="Salesforce Platform" data-source-line="3" data-uid="ent0002" id="cluster_Salesforce Platform"><path d="M8.5,43.4883 L149.5068,43.4883 A3.75,3.75 0 0 1 152.0068,45.9883 L159.0068,65.9766 L791.5,65.9766 A2.5,2.5 0 0 1 794,68.4766 L794,1055.8483 A2.5,2.5 0 0 1 791.5,1058.3483 L8.5,1058.3483 A2.5,2.5 0 0 1 6,1055.8483 L6,45.9883 A2.5,2.5 0 0 1 8.5,43.4883" fill="none" style="stroke:#000000;stroke-width:1.5;"/><line style="stroke:#000000;stroke-width:1.5;" x1="6" x2="159.0068" y1="65.9766" y2="65.9766"/><text fill="#000000" font-family="sans-serif" font-size="14" font-weight="bold" lengthAdjust="spacing" textLength="140.0068" x="10" y="59.0234">Salesforce Platform</text></g><!--class Flow--><g class="entity" data-entity="Flow" data-source-line="5" data-uid="ent0003" id="entity_Flow"><rect fill="#F1F1F1" height="80.9766" rx="2.5" ry="2.5" style="stroke:#181818;stroke-width:0.5;" width="122.6943" x="307.65" y="78.4883"/><ellipse cx="349.5397" cy="94.4883" fill="#ADD1B2" rx="11" ry="11" style="stroke:#181818;stroke-width:1;"/><path d="M352.0128,100.6313 Q351.4318,100.9302 350.7926,101.0796 Q350.1535,101.229 349.4479,101.229 Q346.9411,101.229 345.6212,99.5771 Q344.3014,97.9253 344.3014,94.8042 Q344.3014,91.6748 345.6212,90.0229 Q346.9411,88.3711 349.4479,88.3711 Q350.1535,88.3711 350.8009,88.5205 Q351.4484,88.6699 352.0128,88.9687 L352.0128,91.6914 Q351.382,91.1104 350.7885,90.8406 Q350.195,90.5708 349.5641,90.5708 Q348.2194,90.5708 347.5346,91.6375 Q346.8498,92.7041 346.8498,94.8042 Q346.8498,96.896 347.5346,97.9626 Q348.2194,99.0293 349.5641,99.0293 Q350.195,99.0293 350.7885,98.7595 Q351.382,98.4897 352.0128,97.9087 Z " fill="#000000"/><text fill="#000000" font-family="sans-serif" font-size="14" lengthAdjust="spacing" textLength="30.9395" x="369.5152" y="99.7793">Flow</text><line style="stroke:#181818;stroke-width:0.5;" x1="308.65" x2="429.3443" y1="110.4883" y2="110.4883"/><line style="stroke:#181818;stroke-width:0.5;" x1="308.65" x2="429.3443" y1="118.4883" y2="118.4883"/><ellipse cx="318.65" cy="132.2324" fill="#84BE84" rx="3" ry="3" style="stroke:#038048;stroke-width:1;"/><text fill="#000000" font-family="sans-serif" font-size="14" lengthAdjust="spacing" textLength="40.1748" x="327.65" y="136.0234">start()</text><ellipse cx="318.65" cy="148.7207" fill="#84BE84" rx="3" ry="3" style="stroke:#038048;stroke-width:1;"/><text fill="#000000" font-family="sans-serif" font-size="14" lengthAdjust="spacing" textLength="96.6943" x="327.65" y="152.5117">getUserInput()</text></g><!--class BotController--><g class="entity" data-entity="BotController" data-source-line="10" data-uid="ent0004" id="entity_BotController"><rect fill="#F1F1F1" height="64.4883" rx="2.5" ry="2.5" style="stroke:#181818;stroke-width:0.5;" width="122.0498" x="307.98" y="236.4683"/><ellipse cx="322.98" cy="252.4683" fill="#ADD1B2" rx="11" ry="11" style="stroke:#181818;stroke-width:1;"/><path d="M325.4531,258.6113 Q324.8721,258.9102 324.2329,259.0596 Q323.5938,259.209 322.8882,259.209 Q320.3814,259.209 319.0615,257.5571 Q317.7417,255.9053 317.7417,252.7842 Q317.7417,249.6548 319.0615,248.0029 Q320.3814,246.3511 322.8882,246.3511 Q323.5938,246.3511 324.2412,246.5005 Q324.8887,246.6499 325.4531,246.9487 L325.4531,249.6714 Q324.8223,249.0904 324.2288,248.8206 Q323.6353,248.5508 323.0044,248.5508 Q321.6597,248.5508 320.9749,249.6175 Q320.2901,250.6841 320.2901,252.7842 Q320.2901,254.876 320.9749,255.9426 Q321.6597,257.0093 323.0044,257.0093 Q323.6353,257.0093 324.2288,256.7395 Q324.8223,256.4697 325.4531,255.8887 Z " fill="#000000"/><text fill="#000000" font-family="sans-serif" font-size="14" lengthAdjust="spacing" textLength="90.0498" x="336.98" y="257.7593">BotController</text><line style="stroke:#181818;stroke-width:0.5;" x1="308.98" x2="429.0298" y1="268.4683" y2="268.4683"/><line style="stroke:#181818;stroke-width:0.5;" x1="308.98" x2="429.0298" y1="276.4683" y2="276.4683"/><ellipse cx="318.98" cy="290.2124" fill="#84BE84" rx="3" ry="3" style="stroke:#038048;stroke-width:1;"/><text fill="#000000" font-family="sans-serif" font-size="14" lengthAdjust="spacing" textLength="83.3779" x="327.98" y="294.0034">processBot()</text></g><!--class BotFactory--><g class="entity" data-entity="BotFactory" data-source-line="14" data-uid="ent0005" id="entity_BotFactory"><rect fill="#F1F1F1" height="64.4883" rx="2.5" ry="2.5" style="stroke:#181818;stroke-width:0.5;" width="112.1875" x="312.91" y="377.9583"/><ellipse cx="331.9653" cy="393.9583" fill="#ADD1B2" rx="11" ry="11" style="stroke:#181818;stroke-width:1;"/><path d="M334.4384,400.1013 Q333.8574,400.4002 333.2182,400.5496 Q332.579,400.699 331.8735,400.699 Q329.3666,400.699 328.0468,399.0471 Q326.727,397.3953 326.727,394.2742 Q326.727,391.1448 328.0468,389.4929 Q329.3666,387.8411 331.8735,387.8411 Q332.579,387.8411 333.2265,387.9905 Q333.874,388.1399 334.4384,388.4387 L334.4384,391.1614 Q333.8076,390.5804 333.2141,390.3106 Q332.6205,390.0408 331.9897,390.0408 Q330.645,390.0408 329.9601,391.1075 Q329.2753,392.1741 329.2753,394.2742 Q329.2753,396.366 329.9601,397.4326 Q330.645,398.4993 331.9897,398.4993 Q332.6205,398.4993 333.2141,398.2295 Q333.8076,397.9597 334.4384,397.3787 Z " fill="#000000"/><text fill="#000000" font-family="sans-serif" font-size="14" lengthAdjust="spacing" textLength="71.1758" x="346.8664" y="399.2493">BotFactory</text><line style="stroke:#181818;stroke-width:0.5;" x1="313.91" x2="424.0975" y1="409.9583" y2="409.9583"/><line style="stroke:#181818;stroke-width:0.5;" x1="313.91" x2="424.0975" y1="417.9583" y2="417.9583"/><ellipse cx="323.91" cy="431.7024" fill="#84BE84" rx="3" ry="3" style="stroke:#038048;stroke-width:1;"/><text fill="#000000" font-family="sans-serif" font-size="14" lengthAdjust="spacing" textLength="86.1875" x="332.91" y="435.4934">getStrategy()</text></g><!--class BotStrategy--><g class="entity" data-entity="BotStrategy" data-source-line="18" data-uid="ent0006" id="entity_BotStrategy"><rect fill="#F1F1F1" height="64.4883" rx="2.5" ry="2.5" style="stroke:#181818;stroke-width:0.5;" width="109.2051" x="314.4" y="503.4383"/><ellipse cx="329.4" cy="519.4383" fill="#B4A7E5" rx="11" ry="11" style="stroke:#181818;stroke-width:1;"/><path d="M325.8277,515.7034 L325.8277,513.5452 L333.2071,513.5452 L333.2071,515.7034 L330.7418,515.7034 L330.7418,523.7801 L333.2071,523.7801 L333.2071,525.9383 L325.8277,525.9383 L325.8277,523.7801 L328.2931,523.7801 L328.2931,515.7034 Z " fill="#000000"/><text fill="#000000" font-family="sans-serif" font-size="14" font-style="italic" lengthAdjust="spacing" textLength="77.2051" x="343.4" y="524.7293">BotStrategy</text><line style="stroke:#181818;stroke-width:0.5;" x1="315.4" x2="422.6051" y1="535.4383" y2="535.4383"/><line style="stroke:#181818;stroke-width:0.5;" x1="315.4" x2="422.6051" y1="543.4383" y2="543.4383"/><ellipse cx="325.4" cy="557.1824" fill="#84BE84" rx="3" ry="3" style="stroke:#038048;stroke-width:1;"/><text fill="#000000" font-family="sans-serif" font-size="14" lengthAdjust="spacing" textLength="54.8721" x="334.4" y="560.9734">handle()</text></g><!--class TrackingStrategy--><g class="entity" data-entity="TrackingStrategy" data-source-line="22" data-uid="ent0007" id="entity_TrackingStrategy"><rect fill="#F1F1F1" height="64.4883" rx="2.5" ry="2.5" style="stroke:#181818;stroke-width:0.5;" width="146.4473" x="21.78" y="628.9283"/><ellipse cx="36.78" cy="644.9283" fill="#ADD1B2" rx="11" ry="11" style="stroke:#181818;stroke-width:1;"/><path d="M39.2531,651.0713 Q38.6721,651.3702 38.0329,651.5196 Q37.3938,651.669 36.6882,651.669 Q34.1814,651.669 32.8615,650.0171 Q31.5417,648.3653 31.5417,645.2442 Q31.5417,642.1148 32.8615,640.4629 Q34.1814,638.8111 36.6882,638.8111 Q37.3938,638.8111 38.0412,638.9605 Q38.6887,639.1099 39.2531,639.4087 L39.2531,642.1314 Q38.6223,641.5504 38.0288,641.2806 Q37.4353,641.0108 36.8044,641.0108 Q35.4597,641.0108 34.7749,642.0775 Q34.0901,643.1441 34.0901,645.2442 Q34.0901,647.336 34.7749,648.4026 Q35.4597,649.4693 36.8044,649.4693 Q37.4353,649.4693 38.0288,649.1995 Q38.6223,648.9297 39.2531,648.3487 Z " fill="#000000"/><text fill="#000000" font-family="sans-serif" font-size="14" lengthAdjust="spacing" textLength="114.4473" x="50.78" y="650.2193">TrackingStrategy</text><line style="stroke:#181818;stroke-width:0.5;" x1="22.78" x2="167.2273" y1="660.9283" y2="660.9283"/><line style="stroke:#181818;stroke-width:0.5;" x1="22.78" x2="167.2273" y1="668.9283" y2="668.9283"/><ellipse cx="32.78" cy="682.6724" fill="#84BE84" rx="3" ry="3" style="stroke:#038048;stroke-width:1;"/><text fill="#000000" font-family="sans-serif" font-size="14" lengthAdjust="spacing" textLength="54.8721" x="41.78" y="686.4634">handle()</text></g><!--class TrackingService--><g class="entity" data-entity="TrackingService" data-source-line="26" data-uid="ent0008" id="entity_TrackingService"><rect fill="#F1F1F1" height="64.4883" rx="2.5" ry="2.5" style="stroke:#181818;stroke-width:0.5;" width="138.4629" x="25.77" y="795.1483"/><ellipse cx="40.77" cy="811.1483" fill="#ADD1B2" rx="11" ry="11" style="stroke:#181818;stroke-width:1;"/><path d="M43.2431,817.2913 Q42.6621,817.5902 42.0229,817.7396 Q41.3838,817.889 40.6782,817.889 Q38.1714,817.889 36.8515,816.2371 Q35.5317,814.5853 35.5317,811.4642 Q35.5317,808.3348 36.8515,806.6829 Q38.1714,805.0311 40.6782,805.0311 Q41.3838,805.0311 42.0312,805.1805 Q42.6787,805.3299 43.2431,805.6287 L43.2431,808.3514 Q42.6123,807.7704 42.0188,807.5006 Q41.4253,807.2308 40.7944,807.2308 Q39.4497,807.2308 38.7649,808.2975 Q38.0801,809.3641 38.0801,811.4642 Q38.0801,813.556 38.7649,814.6226 Q39.4497,815.6893 40.7944,815.6893 Q41.4253,815.6893 42.0188,815.4195 Q42.6123,815.1497 43.2431,814.5687 Z " fill="#000000"/><text fill="#000000" font-family="sans-serif" font-size="14" lengthAdjust="spacing" textLength="106.4629" x="54.77" y="816.4393">TrackingService</text><line style="stroke:#181818;stroke-width:0.5;" x1="26.77" x2="163.2329" y1="827.1483" y2="827.1483"/><line style="stroke:#181818;stroke-width:0.5;" x1="26.77" x2="163.2329" y1="835.1483" y2="835.1483"/><ellipse cx="36.77" cy="848.8924" fill="#84BE84" rx="3" ry="3" style="stroke:#038048;stroke-width:1;"/><text fill="#000000" font-family="sans-serif" font-size="14" lengthAdjust="spacing" textLength="98.0273" x="45.77" y="852.6834">getOrderById()</text></g><!--class TrackingRepository--><g class="entity" data-entity="TrackingRepository" data-source-line="30" data-uid="ent0009" id="entity_TrackingRepository"><rect fill="#F1F1F1" height="80.9766" rx="2.5" ry="2.5" style="stroke:#181818;stroke-width:0.5;" width="163.2568" x="22.37" y="961.3683"/><ellipse cx="37.37" cy="977.3683" fill="#ADD1B2" rx="11" ry="11" style="stroke:#181818;stroke-width:1;"/><path d="M39.8431,983.5113 Q39.2621,983.8102 38.6229,983.9596 Q37.9838,984.109 37.2782,984.109 Q34.7714,984.109 33.4515,982.4571 Q32.1317,980.8053 32.1317,977.6842 Q32.1317,974.5548 33.4515,972.9029 Q34.7714,971.2511 37.2782,971.2511 Q37.9838,971.2511 38.6312,971.4005 Q39.2787,971.5499 39.8431,971.8487 L39.8431,974.5714 Q39.2123,973.9904 38.6188,973.7206 Q38.0253,973.4508 37.3944,973.4508 Q36.0497,973.4508 35.3649,974.5175 Q34.6801,975.5841 34.6801,977.6842 Q34.6801,979.776 35.3649,980.8426 Q36.0497,981.9093 37.3944,981.9093 Q38.0253,981.9093 38.6188,981.6395 Q39.2123,981.3697 39.8431,980.7887 Z " fill="#000000"/><text fill="#000000" font-family="sans-serif" font-size="14" lengthAdjust="spacing" textLength="131.2568" x="51.37" y="982.6593">TrackingRepository</text><line style="stroke:#181818;stroke-width:0.5;" x1="23.37" x2="184.6268" y1="993.3683" y2="993.3683"/><line style="stroke:#181818;stroke-width:0.5;" x1="23.37" x2="184.6268" y1="1001.3683" y2="1001.3683"/><ellipse cx="33.37" cy="1015.1124" fill="#84BE84" rx="3" ry="3" style="stroke:#038048;stroke-width:1;"/><text fill="#000000" font-family="sans-serif" font-size="14" lengthAdjust="spacing" textLength="98.0273" x="42.37" y="1018.9034">getOrderById()</text><ellipse cx="33.37" cy="1031.6007" fill="#84BE84" rx="3" ry="3" style="stroke:#038048;stroke-width:1;"/><text fill="#000000" font-family="sans-serif" font-size="14" lengthAdjust="spacing" textLength="122.9443" x="42.37" y="1035.3917">saveTrackingLog()</text></g><!--class SupportStrategy--><g class="entity" data-entity="SupportStrategy" data-source-line="35" data-uid="ent0010" id="entity_SupportStrategy"><rect fill="#F1F1F1" height="48" rx="2.5" ry="2.5" style="stroke:#181818;stroke-width:0.5;" width="140.7324" x="203.63" y="637.1783"/><ellipse cx="218.63" cy="653.1783" fill="#ADD1B2" rx="11" ry="11" style="stroke:#181818;stroke-width:1;"/><path d="M221.1031,659.3213 Q220.5221,659.6202 219.8829,659.7696 Q219.2438,659.919 218.5382,659.919 Q216.0314,659.919 214.7115,658.2671 Q213.3917,656.6153 213.3917,653.4942 Q213.3917,650.3648 214.7115,648.7129 Q216.0314,647.0611 218.5382,647.0611 Q219.2438,647.0611 219.8912,647.2105 Q220.5387,647.3599 221.1031,647.6587 L221.1031,650.3814 Q220.4723,649.8004 219.8788,649.5306 Q219.2853,649.2608 218.6544,649.2608 Q217.3097,649.2608 216.6249,650.3275 Q215.9401,651.3941 215.9401,653.4942 Q215.9401,655.586 216.6249,656.6526 Q217.3097,657.7193 218.6544,657.7193 Q219.2853,657.7193 219.8788,657.4495 Q220.4723,657.1797 221.1031,656.5987 Z " fill="#000000"/><text fill="#000000" font-family="sans-serif" font-size="14" lengthAdjust="spacing" textLength="108.7324" x="232.63" y="658.4693">SupportStrategy</text><line style="stroke:#181818;stroke-width:0.5;" x1="204.63" x2="343.3624" y1="669.1783" y2="669.1783"/><line style="stroke:#181818;stroke-width:0.5;" x1="204.63" x2="343.3624" y1="677.1783" y2="677.1783"/></g><!--class ReturnPolicyStrategy--><g class="entity" data-entity="ReturnPolicyStrategy" data-source-line="36" data-uid="ent0011" id="entity_ReturnPolicyStrategy"><rect fill="#F1F1F1" height="48" rx="2.5" ry="2.5" style="stroke:#181818;stroke-width:0.5;" width="171.2275" x="379.39" y="637.1783"/><ellipse cx="394.39" cy="653.1783" fill="#ADD1B2" rx="11" ry="11" style="stroke:#181818;stroke-width:1;"/><path d="M396.8631,659.3213 Q396.2821,659.6202 395.6429,659.7696 Q395.0038,659.919 394.2982,659.919 Q391.7914,659.919 390.4715,658.2671 Q389.1517,656.6153 389.1517,653.4942 Q389.1517,650.3648 390.4715,648.7129 Q391.7914,647.0611 394.2982,647.0611 Q395.0038,647.0611 395.6512,647.2105 Q396.2987,647.3599 396.8631,647.6587 L396.8631,650.3814 Q396.2323,649.8004 395.6388,649.5306 Q395.0453,649.2608 394.4144,649.2608 Q393.0697,649.2608 392.3849,650.3275 Q391.7001,651.3941 391.7001,653.4942 Q391.7001,655.586 392.3849,656.6526 Q393.0697,657.7193 394.4144,657.7193 Q395.0453,657.7193 395.6388,657.4495 Q396.2323,657.1797 396.8631,656.5987 Z " fill="#000000"/><text fill="#000000" font-family="sans-serif" font-size="14" lengthAdjust="spacing" textLength="139.2275" x="408.39" y="658.4693">ReturnPolicyStrategy</text><line style="stroke:#181818;stroke-width:0.5;" x1="380.39" x2="549.6175" y1="669.1783" y2="669.1783"/><line style="stroke:#181818;stroke-width:0.5;" x1="380.39" x2="549.6175" y1="677.1783" y2="677.1783"/></g><!--class ServiceContractStrategy--><g class="entity" data-entity="ServiceContractStrategy" data-source-line="37" data-uid="ent0012" id="entity_ServiceContractStrategy"><rect fill="#F1F1F1" height="48" rx="2.5" ry="2.5" style="stroke:#181818;stroke-width:0.5;" width="192.7266" x="585.64" y="637.1783"/><ellipse cx="600.64" cy="653.1783" fill="#ADD1B2" rx="11" ry="11" style="stroke:#181818;stroke-width:1;"/><path d="M603.1131,659.3213 Q602.5321,659.6202 601.8929,659.7696 Q601.2538,659.919 600.5482,659.919 Q598.0414,659.919 596.7215,658.2671 Q595.4017,656.6153 595.4017,653.4942 Q595.4017,650.3648 596.7215,648.7129 Q598.0414,647.0611 600.5482,647.0611 Q601.2538,647.0611 601.9012,647.2105 Q602.5487,647.3599 603.1131,647.6587 L603.1131,650.3814 Q602.4823,649.8004 601.8888,649.5306 Q601.2953,649.2608 600.6644,649.2608 Q599.3197,649.2608 598.6349,650.3275 Q597.9501,651.3941 597.9501,653.4942 Q597.9501,655.586 598.6349,656.6526 Q599.3197,657.7193 600.6644,657.7193 Q601.2953,657.7193 601.8888,657.4495 Q602.4823,657.1797 603.1131,656.5987 Z " fill="#000000"/><text fill="#000000" font-family="sans-serif" font-size="14" lengthAdjust="spacing" textLength="160.7266" x="614.64" y="658.4693">ServiceContractStrategy</text><line style="stroke:#181818;stroke-width:0.5;" x1="586.64" x2="777.3666" y1="669.1783" y2="669.1783"/><line style="stroke:#181818;stroke-width:0.5;" x1="586.64" x2="777.3666" y1="677.1783" y2="677.1783"/></g><!--class InteractionLog__c--><g class="entity" data-entity="InteractionLog__c" data-source-line="39" data-uid="ent0013" id="entity_InteractionLog__c"><rect fill="#F1F1F1" height="113.9531" rx="2.5" ry="2.5" style="stroke:#181818;stroke-width:0.5;" width="150.9248" x="199.54" y="770.4183"/><ellipse cx="214.54" cy="786.4183" fill="#ADD1B2" rx="11" ry="11" style="stroke:#181818;stroke-width:1;"/><path d="M217.0131,792.5613 Q216.4321,792.8602 215.7929,793.0096 Q215.1538,793.159 214.4482,793.159 Q211.9414,793.159 210.6215,791.5071 Q209.3017,789.8553 209.3017,786.7342 Q209.3017,783.6048 210.6215,781.9529 Q211.9414,780.3011 214.4482,780.3011 Q215.1538,780.3011 215.8012,780.4505 Q216.4487,780.5999 217.0131,780.8987 L217.0131,783.6214 Q216.3823,783.0404 215.7888,782.7706 Q215.1953,782.5008 214.5644,782.5008 Q213.2197,782.5008 212.5349,783.5675 Q211.8501,784.6341 211.8501,786.7342 Q211.8501,788.826 212.5349,789.8926 Q213.2197,790.9593 214.5644,790.9593 Q215.1953,790.9593 215.7888,790.6895 Q216.3823,790.4197 217.0131,789.8387 Z " fill="#000000"/><text fill="#000000" font-family="sans-serif" font-size="14" lengthAdjust="spacing" textLength="118.9248" x="228.54" y="791.7093">InteractionLog__c</text><line style="stroke:#181818;stroke-width:0.5;" x1="200.54" x2="349.4648" y1="802.4183" y2="802.4183"/><ellipse cx="210.54" cy="816.1624" fill="none" rx="3" ry="3" style="stroke:#038048;stroke-width:1;"/><text fill="#000000" font-family="sans-serif" font-size="14" lengthAdjust="spacing" textLength="64.5723" x="219.54" y="819.9534">Action__c</text><ellipse cx="210.54" cy="832.6507" fill="none" rx="3" ry="3" style="stroke:#038048;stroke-width:1;"/><text fill="#000000" font-family="sans-serif" font-size="14" lengthAdjust="spacing" textLength="62.7402" x="219.54" y="836.4417">Status__c</text><ellipse cx="210.54" cy="849.139" fill="none" rx="3" ry="3" style="stroke:#038048;stroke-width:1;"/><text fill="#000000" font-family="sans-serif" font-size="14" lengthAdjust="spacing" textLength="73.1445" x="219.54" y="852.93">Payload__c</text><ellipse cx="210.54" cy="865.6273" fill="none" rx="3" ry="3" style="stroke:#038048;stroke-width:1;"/><text fill="#000000" font-family="sans-serif" font-size="14" lengthAdjust="spacing" textLength="96.9268" x="219.54" y="869.4183">Timestamp__c</text><line style="stroke:#181818;stroke-width:0.5;" x1="200.54" x2="349.4648" y1="876.3714" y2="876.3714"/></g><!--link Flow to BotController--><g class="link" data-entity-1="Flow" data-entity-2="BotController" data-source-line="47" data-uid="lnk14" id="link_Flow_BotController"><path codeLine="47" d="M369,159.9583 C369,183.8783 369,207.8683 369,230.1283" fill="none" id="Flow-to-BotController" style="stroke:#181818;stroke-width:1;"/><polygon fill="#181818" points="369,236.1283,373,227.1283,369,231.1283,365,227.1283,369,236.1283" style="stroke:#181818;stroke-width:1;"/><text fill="#000000" font-family="sans-serif" font-size="13" lengthAdjust="spacing" textLength="48.0073" x="370" y="203.0366">invokes</text></g><!--link BotController to BotFactory--><g class="link" data-entity-1="BotController" data-entity-2="BotFactory" data-source-line="48" data-uid="lnk15" id="link_BotController_BotFactory"><path codeLine="48" d="M369,301.3583 C369,324.1883 369,348.8683 369,371.6683" fill="none" id="BotController-to-BotFactory" style="stroke:#181818;stroke-width:1;"/><polygon fill="#181818" points="369,377.6683,373,368.6683,369,372.6683,365,368.6683,369,377.6683" style="stroke:#181818;stroke-width:1;"/><text fill="#000000" font-family="sans-serif" font-size="13" lengthAdjust="spacing" textLength="71.5762" x="370" y="344.5266">getStrategy</text></g><!--link BotFactory to BotStrategy--><g class="link" data-entity-1="BotFactory" data-entity-2="BotStrategy" data-source-line="49" data-uid="lnk16" id="link_BotFactory_BotStrategy"><path codeLine="49" d="M369,442.6783 C369,461.2583 369,478.6983 369,497.2583" fill="none" id="BotFactory-to-BotStrategy" style="stroke:#181818;stroke-width:1;"/><polygon fill="#181818" points="369,503.2583,373,494.2583,369,498.2583,365,494.2583,369,503.2583" style="stroke:#181818;stroke-width:1;"/></g><!--reverse link BotStrategy to TrackingStrategy--><g class="link" data-entity-1="BotStrategy" data-entity-2="TrackingStrategy" data-source-line="50" data-uid="lnk17" id="link_BotStrategy_TrackingStrategy"><path codeLine="50" d="M297.8004,568.7758 C255.0104,588.0658 211.65,607.5983 165.33,628.4783" fill="none" id="BotStrategy-backto-TrackingStrategy" style="stroke:#181818;stroke-width:1;stroke-dasharray:7.0,7.0;"/><polygon fill="none" points="314.21,561.3783,295.3345,563.306,300.2662,574.2457,314.21,561.3783" style="stroke:#181818;stroke-width:1;"/></g><!--reverse link BotStrategy to SupportStrategy--><g class="link" data-entity-1="BotStrategy" data-entity-2="SupportStrategy" data-source-line="51" data-uid="lnk18" id="link_BotStrategy_SupportStrategy"><path codeLine="51" d="M333.8062,582.4363 C317.3162,603.8763 306.82,617.5083 291.87,636.9383" fill="none" id="BotStrategy-backto-SupportStrategy" style="stroke:#181818;stroke-width:1;stroke-dasharray:7.0,7.0;"/><polygon fill="none" points="344.78,568.1683,329.0502,578.7783,338.5622,586.0942,344.78,568.1683" style="stroke:#181818;stroke-width:1;"/></g><!--reverse link BotStrategy to ReturnPolicyStrategy--><g class="link" data-entity-1="BotStrategy" data-entity-2="ReturnPolicyStrategy" data-source-line="52" data-uid="lnk19" id="link_BotStrategy_ReturnPolicyStrategy"><path codeLine="52" d="M404.5186,582.3784 C421.1886,603.8184 431.83,617.5083 446.94,636.9383" fill="none" id="BotStrategy-backto-ReturnPolicyStrategy" style="stroke:#181818;stroke-width:1;stroke-dasharray:7.0,7.0;"/><polygon fill="none" points="393.47,568.1683,399.7819,586.0613,409.2553,578.6955,393.47,568.1683" style="stroke:#181818;stroke-width:1;"/></g><!--reverse link BotStrategy to ServiceContractStrategy--><g class="link" data-entity-1="BotStrategy" data-entity-2="ServiceContractStrategy" data-source-line="53" data-uid="lnk20" id="link_BotStrategy_ServiceContractStrategy"><path codeLine="53" d="M440.6239,564.9444 C496.2839,586.9044 565.43,614.1883 622.65,636.7583" fill="none" id="BotStrategy-backto-ServiceContractStrategy" style="stroke:#181818;stroke-width:1;stroke-dasharray:7.0,7.0;"/><polygon fill="none" points="423.88,558.3383,438.4219,570.5257,442.826,559.3631,423.88,558.3383" style="stroke:#181818;stroke-width:1;"/></g><!--link TrackingStrategy to TrackingService--><g class="link" data-entity-1="TrackingStrategy" data-entity-2="TrackingService" data-source-line="55" data-uid="lnk21" id="link_TrackingStrategy_TrackingService"><path codeLine="55" d="M95,693.8383 C95,722.9183 95,759.7783 95,788.8283" fill="none" id="TrackingStrategy-to-TrackingService" style="stroke:#181818;stroke-width:1;"/><polygon fill="#181818" points="95,794.8283,99,785.8283,95,789.8283,91,785.8283,95,794.8283" style="stroke:#181818;stroke-width:1;"/><text fill="#000000" font-family="sans-serif" font-size="13" lengthAdjust="spacing" textLength="60.4424" x="96" y="736.9866">delegates</text></g><!--link TrackingStrategy to InteractionLog__c--><g class="link" data-entity-1="TrackingStrategy" data-entity-2="InteractionLog__c" data-source-line="56" data-uid="lnk22" id="link_TrackingStrategy_InteractionLog__c"><path codeLine="56" d="M131.54,693.7283 C142.37,703.1983 154.23,713.6683 165,723.4183 C181.58,738.4283 194.9801,750.7975 211.3001,766.0775" fill="none" id="TrackingStrategy-to-InteractionLog__c" style="stroke:#181818;stroke-width:1;"/><polygon fill="#181818" points="215.68,770.1783,211.844,761.1072,212.0301,766.761,206.3763,766.947,215.68,770.1783" style="stroke:#181818;stroke-width:1;"/><text fill="#000000" font-family="sans-serif" font-size="13" lengthAdjust="spacing" textLength="26.4761" x="184.21" y="736.9866">logs</text></g><!--link TrackingService to TrackingRepository--><g class="link" data-entity-1="TrackingService" data-entity-2="TrackingRepository" data-source-line="57" data-uid="lnk23" id="link_TrackingService_TrackingRepository"><path codeLine="57" d="M96.65,860.0283 C98.13,888.4183 99.9957,924.2465 101.6057,954.9365" fill="none" id="TrackingService-to-TrackingRepository" style="stroke:#181818;stroke-width:1;"/><polygon fill="#181818" points="101.92,960.9283,105.443,951.7311,101.6581,955.9351,97.454,952.1502,101.92,960.9283" style="stroke:#181818;stroke-width:1;"/><text fill="#000000" font-family="sans-serif" font-size="13" lengthAdjust="spacing" textLength="49.2451" x="101.31" y="927.9366">persists</text></g><!--SRC=[bLHHIyCm47xlhpXycIBEzoA22k9Wu73wF49wwyAo9bnkawBxxzxMfRRB9WYbzExxlilbxgDis2AyeBNkqJ4ya5uOHirhGlWql81tKdffgXB6gaOAMUObLYN2nLHP37D76c5Y5SlNwWA-CW1vj5KXmBDrd_iCm7LWHNnvrGGbyaT06bL-tUIsNPaqykGg9cSjKjHxSXf34Eoau5bfTbH7jXmmPLACPTsbcugHvaew5aaaHCr2LON5j7gSmB_vI1iZH_ssz4e5qcCzAiwBtj2xO8wkqjVjXgas61LZLwRbfcll7RLNRFDlA9kj9iuQNIVWeU7zx6MS7RobZ7O35CouIiwTpNJiyc6VaqGJJbdnEhJXHDNMgQADtyqAnH0htsIscRnk1q0eFf8oOM5yWC6jPFSMkhcvFp95BglSk2K6eVIH0pVw8OUE5HfoX0xCFjWk-UvxE4nMVugJZZgXd9bwMkgl1IGstFL_xBKS2hHO2Y6SawGhpC6wiiS_LEkUq35c3bx-12PmoBRP3m00]--></g></svg>